<svg width="53" height="30" viewBox="0 0 53 30" fill="none" xmlns="http://www.w3.org/2000/svg">
<path d="M50.8678 29.9976H45.0672C42.8725 29.9976 42.2114 28.3039 38.2773 24.5531C34.8392 21.3959 33.3871 21.0034 32.5174 21.0034C31.3146 21.0034 30.9865 21.3184 30.9865 22.8958V27.8678C30.9865 29.2125 30.5288 30 26.8414 30C23.2642 29.771 19.7952 28.7356 16.7202 26.9789C13.6452 25.2222 11.0522 22.7947 9.15482 19.8961C4.6496 14.5534 1.51489 8.28287 0 1.58308C0 0.754417 0.330591 0.00328754 1.98863 0.00328754H7.78668C9.27689 0.00328754 9.81346 0.635691 10.3984 2.09676C13.2135 9.99088 18.0172 16.8577 19.9677 16.8577C20.7153 16.8577 21.0408 16.5427 21.0408 14.7666V6.63503C20.7942 2.92542 18.7267 2.61286 18.7267 1.27052C18.7528 0.916373 18.9229 0.585894 19.2006 0.349275C19.4784 0.112656 19.8421 -0.0114608 20.2144 0.00328754H29.3285C30.5746 0.00328754 30.9865 0.594499 30.9865 2.01438V12.9906C30.9865 14.1754 31.5206 14.5679 31.8969 14.5679C32.6446 14.5679 33.2193 14.1754 34.59 12.8718C37.528 9.45779 39.9284 5.65412 41.7155 1.58066C41.8984 1.09158 42.2442 0.672942 42.7001 0.388586C43.156 0.104229 43.6971 -0.0302328 44.2407 0.00571036H50.0413C51.7807 0.00571036 52.1494 0.834376 51.7807 2.0168C49.6709 6.51974 47.0605 10.7941 43.994 14.7666C43.3684 15.6752 43.1192 16.1477 43.994 17.2138C44.5687 18.0425 46.6031 19.6611 47.9687 21.1997C49.9574 23.0896 51.6078 25.2752 52.8564 27.6691C53.3548 29.2101 52.5233 29.9976 50.8678 29.9976Z" fill="#1C1B17"/>
</svg>
